<svg width="220" height="72" viewBox="0 0 220 72" fill="none" xmlns="http://www.w3.org/2000/svg">
  <rect width="220" height="72" rx="18" fill="#FFFFFF"/>
  <rect x="18" y="18" width="36" height="36" rx="12" fill="#1F4E79" fill-opacity="0.1"/>
  <path d="M29 45L36 27H38.5L45.5 45H42.5L40.9 40.7H33.5L31.9 45H29ZM34.4 38.2H40L37.2 30.5L34.4 38.2Z" fill="#1F4E79"/>
  <path d="M71 30.8H85.8V34H74.6V37.6H84.9V40.6H74.6V45H71V30.8Z" fill="#2C3E50"/>
  <path d="M89 45V30.8H92.6V45H89Z" fill="#2C3E50"/>
  <path d="M96.7 45V30.8H100.3V41.8H109.4V45H96.7Z" fill="#2C3E50"/>
  <path d="M112.1 45V30.8H124.8V33.9H115.7V36.4H124.1V39.4H115.7V41.9H125V45H112.1Z" fill="#2C3E50"/>
  <path d="M128.5 45V30.8H134.8C139.6 30.8 142.8 33.6 142.8 37.9C142.8 42.2 139.6 45 134.8 45H128.5ZM132.1 41.8H134.6C137.5 41.8 139.1 40.3 139.1 37.9C139.1 35.5 137.5 34 134.6 34H132.1V41.8Z" fill="#2C3E50"/>
  <path d="M146.1 45V30.8H158.8V33.9H149.7V36.4H158.1V39.4H149.7V41.9H159V45H146.1Z" fill="#2C3E50"/>
</svg>
